<svg width="120" height="50" viewBox="0 0 120 50" fill="none" xmlns="http://www.w3.org/2000/svg">
<path fill-rule="evenodd" clip-rule="evenodd" d="M18.1035 30.2872L18.1511 29.8255C18.6826 26.9511 17.4271 25.7191 13.4651 25.7191C9.64793 25.7191 7.95702 26.9511 7.47404 29.8255L7.37784 30.3383C6.84627 33.2138 8.58578 34.4979 12.0152 34.4979C15.5428 34.4979 17.6681 32.7511 18.1035 30.2872ZM31.5821 28.183L36.1243 0.870213C36.1648 0.626381 36.2839 0.405596 36.4609 0.246505C36.6379 0.0874149 36.8613 0.000154979 37.0922 0L42.3921 0C42.5356 0.000151327 42.6774 0.0340012 42.8075 0.0991741C42.9375 0.164347 43.0527 0.259264 43.145 0.377263C43.2372 0.495262 43.3042 0.633485 43.3414 0.78223C43.3785 0.930975 43.3849 1.08664 43.36 1.2383L41.8734 10.267C43.7091 8.82979 45.7382 7.80319 49.4592 7.80319C56.7058 7.80319 59.556 12.9362 58.5415 19.0447L56.8506 29.1064C55.6426 36.4468 51.633 39.9894 42.6945 39.9894C34.2886 39.9894 30.4228 35.0106 31.5821 28.183ZM49.7973 27.8745L51.1501 19.8149C51.6807 16.6319 50.5213 14.4766 46.6079 14.4766C42.6469 14.4766 40.8102 16.6319 40.2787 19.8149L38.9259 27.8745C38.3944 31.0574 39.5547 33.2138 43.5157 33.2138C47.4291 33.2138 49.2658 31.0574 49.7973 27.8745ZM88.3025 26.0266H69.7025L69.3157 28.4904C68.8803 31.2117 69.6529 33.6755 74.2922 33.6755C78.3018 33.6755 80.2347 32.4436 80.6691 29.8777C80.6824 29.805 80.7189 29.7396 80.7723 29.6926C80.8257 29.6456 80.8926 29.6201 80.9617 29.6202H86.7554C86.8752 29.6203 86.9936 29.6481 87.1025 29.7018C87.2114 29.7554 87.3082 29.8337 87.3863 29.9311C87.4644 30.0286 87.5221 30.1429 87.5552 30.2665C87.5884 30.39 87.5963 30.5197 87.5785 30.6468C86.564 36.7043 82.5534 39.9894 73.7121 39.9894C64.9669 39.9894 61.1993 34.9074 62.3101 28.3883L63.8562 18.8915C65.1603 11.4989 69.1709 7.80319 78.1084 7.80319C86.7088 7.80319 90.525 12.7819 89.4142 19.4564L88.3035 26.0266H88.3025ZM70.8132 19.4043L70.5722 20.9957H82.119L82.4086 19.3532C82.9402 16.0681 81.6846 14.117 77.5293 14.117C73.2291 14.117 71.3448 16.2734 70.8132 19.4043ZM105.213 30.8521C109.175 30.8521 111.01 28.6957 111.542 25.616L112.46 19.9181C112.991 16.7862 111.831 14.6819 107.918 14.6819C104.005 14.6819 102.169 16.7862 101.637 19.9181L100.72 25.616C100.188 28.6957 101.299 30.8521 105.213 30.8521ZM108.594 7.80319C117.001 7.80319 120.963 12.8851 119.803 19.8149L116.712 38.3979C115.261 46.8681 110.768 50 102.894 50H102.073C95.0671 50 90.525 46.2521 91.2499 40.1436C91.2773 39.9853 91.3554 39.8422 91.4708 39.7392C91.5862 39.6362 91.7315 39.5798 91.8817 39.5798H98.2555C97.8688 41.9404 99.4635 43.583 102.845 43.583C107.145 43.583 108.933 41.4787 109.416 38.5521L110.092 34.7021C108.257 36.2425 106.276 37.1149 102.411 37.1149C95.7435 37.1149 92.313 32.2383 93.4238 25.5138L94.4869 18.9936C95.6949 11.6532 99.7045 7.80213 108.594 7.80213V7.80319ZM21.2998 4.04681C21.4494 4.04697 21.5969 4.08371 21.7312 4.15422C21.8655 4.22472 21.9831 4.32715 22.075 4.45371C22.1669 4.58027 22.2307 4.72763 22.2615 4.8846C22.2923 5.04157 22.2894 5.20401 22.2529 5.35957L21.52 8.48085C25.953 10.0234 28.1101 14.0532 27.282 19.0447L25.5435 29.517C24.4724 35.9245 20.9914 38.9053 15.5795 39.766L14.9349 42.5053C14.8814 42.7333 14.7585 42.9356 14.5857 43.0801C14.4128 43.2247 14.2 43.3032 13.9808 43.3032H8.19305C8.04332 43.3032 7.89555 43.2666 7.76101 43.1961C7.62648 43.1256 7.50871 43.0231 7.4167 42.8964C7.32469 42.7697 7.26085 42.6221 7.23006 42.4649C7.19926 42.3077 7.20232 42.1451 7.239 41.9894L7.75371 39.8032C2.44098 38.8809 -0.538191 35.3553 0.0806517 30.4415L0.177842 29.7223C0.854205 24.1266 4.42941 20.8415 12.7878 20.8415C15.9762 20.8415 18.3435 21.3553 19.4552 22.0223L19.8896 19.3021C20.4211 16.3245 19.1656 14.3223 15.5894 14.3223C12.5944 14.3223 10.4205 15.4 9.98611 18.1202H3.02809C3.85321 11.8894 7.02379 8.52128 13.837 7.90638L14.558 4.84255C14.6118 4.61497 14.7349 4.41314 14.9077 4.26902C15.0805 4.12489 15.2932 4.0467 15.5121 4.04681H21.2988H21.2998Z" fill="#494B4F"/>
</svg>
