<svg width="150" height="54" viewBox="0 0 150 54" fill="none" xmlns="http://www.w3.org/2000/svg">
<path d="M79.6641 1.51303C79.6836 1.48003 79.7061 1.48003 79.7331 1.51303L79.6926 1.54603L79.6641 1.51303Z" fill="#494B4F"/>
<path d="M45.2094 13.0396C45.6429 11.7286 46.0539 10.4896 46.4559 9.26114C46.5054 9.11114 46.6059 9.07664 46.7364 9.05264C48.9069 8.64764 51.0864 8.30264 53.3034 8.41214C54.8679 8.48564 56.3724 8.80514 57.7194 9.64514C59.5464 10.7821 60.3819 12.4951 60.5004 14.5951C60.5694 15.8026 60.3729 16.9951 60.2004 18.1771C59.8419 20.5861 59.4729 22.9921 59.1264 25.4011C59.1169 25.5022 59.0804 25.5988 59.0208 25.6808C58.9612 25.7629 58.8805 25.8274 58.7874 25.8676C57.3744 26.6431 55.8414 27.0676 54.2664 27.3256C52.3172 27.6634 50.3291 27.7139 48.3654 27.4756C46.7289 27.2701 45.2034 26.7616 44.0154 25.5586C43.4998 25.0307 43.0996 24.4014 42.8401 23.7107C42.5806 23.0199 42.4675 22.2828 42.508 21.546C42.5485 20.8092 42.7417 20.0889 43.0753 19.4307C43.4088 18.7725 43.8756 18.1909 44.4459 17.7226C45.6639 16.7206 47.1039 16.2226 48.6204 15.9001C50.9169 15.4141 53.2344 15.4801 55.5534 15.6571C55.8429 15.6781 55.9059 15.5896 55.9194 15.3316C56.0229 13.5226 54.9369 12.2236 53.0304 11.8741C51.7074 11.6311 50.4084 11.8411 49.1094 12.0541C47.7839 12.2722 46.4793 12.6019 45.2094 13.0396ZM53.3214 18.4966C52.4958 18.4913 51.6712 18.552 50.8554 18.6781C49.9734 18.8281 49.1169 19.0606 48.4059 19.6456C47.6019 20.3071 47.3874 21.1951 47.5464 22.1731C47.6964 23.0656 48.3204 23.5546 49.1289 23.8426C49.4995 23.973 49.885 24.0562 50.2764 24.0901C51.7224 24.2296 53.1264 23.9776 54.5214 23.6326C54.616 23.6202 54.7028 23.5734 54.7652 23.5013C54.8277 23.4291 54.8616 23.3366 54.8604 23.2411C55.0509 21.8236 55.2399 20.4046 55.4499 18.9901C55.4859 18.7456 55.4049 18.6991 55.2009 18.6601C54.5795 18.5575 53.9511 18.5029 53.3214 18.4966Z" fill="#494B4F"/>
<path d="M112.169 22.9184C111.929 23.6474 111.719 24.2999 111.497 24.9524C111.32 25.4879 111.131 26.0189 110.963 26.5589C110.947 26.6415 110.906 26.7176 110.847 26.7774C110.788 26.8372 110.712 26.8781 110.63 26.8949C108.335 27.5069 106.01 27.8384 103.64 27.5399C100.94 27.1994 98.7078 26.0399 97.3398 23.5634C96.4983 22.0304 96.2313 20.3609 96.3453 18.6404C96.5628 15.3674 97.9263 12.6539 100.461 10.5524C102.002 9.2744 103.799 8.6174 105.776 8.4224C107.139 8.2889 108.495 8.3144 109.826 8.6849C112.535 9.4349 114.341 11.5424 114.687 14.3324C114.887 15.9359 114.687 17.5109 114.428 19.0874C114.396 19.2839 114.297 19.2899 114.147 19.2899C113.42 19.2899 112.691 19.2899 111.963 19.2899C108.463 19.2899 104.963 19.2899 101.463 19.2899C101.181 19.2899 101.099 19.3589 101.094 19.6484C101.055 22.0064 102.357 23.5634 104.675 23.9609C106.388 24.2609 108.054 24.0014 109.718 23.6384C110.55 23.4524 111.368 23.2119 112.169 22.9184ZM106.049 16.2284H109.409C110.435 16.2284 110.435 16.2284 110.469 15.2024C110.54 13.1249 109.269 11.7704 107.204 11.6549C104.733 11.5154 102.404 13.3049 101.804 15.9599C101.754 16.1804 101.804 16.2344 102.029 16.2329C103.365 16.2224 104.699 16.2284 106.049 16.2284Z" fill="#494B4F"/>
<path d="M120.792 27.6C118.589 27.5853 116.403 27.2208 114.315 26.52C114.106 26.448 114.051 26.388 114.126 26.1615C114.469 25.1225 114.797 24.0785 115.111 23.0295C115.189 22.7715 115.281 22.7925 115.488 22.8915C117.493 23.8725 119.758 24.1919 121.957 23.8035C122.473 23.7249 122.962 23.5244 123.385 23.2185C123.581 23.0829 123.743 22.9053 123.861 22.6986C123.979 22.4919 124.049 22.2614 124.066 22.0241C124.083 21.7868 124.046 21.5487 123.959 21.3274C123.872 21.106 123.736 20.907 123.562 20.745C123.181 20.3921 122.753 20.0933 122.29 19.857C121.143 19.215 119.976 18.6135 118.885 17.8695C115.956 15.864 116.313 11.6895 119.197 9.85799C120.475 9.04649 121.875 8.63999 123.361 8.48549C125.839 8.22899 128.235 8.65349 130.596 9.36449C130.812 9.42899 130.867 9.48749 130.785 9.71699C130.429 10.7025 130.086 11.694 129.763 12.6915C129.678 12.954 129.576 12.9345 129.373 12.8415C127.896 12.1447 126.279 11.7957 124.647 11.8215C123.855 11.841 123.082 11.9715 122.412 12.4395C122.127 12.6212 121.909 12.8915 121.793 13.2089C121.676 13.5262 121.667 13.873 121.767 14.196C121.896 14.5582 122.14 14.8684 122.461 15.0795C123.156 15.6015 123.951 15.954 124.711 16.371C125.642 16.8568 126.53 17.4198 127.366 18.054C129.838 20.016 129.588 23.754 127.216 25.653C125.686 26.8755 123.895 27.3645 121.99 27.5385C121.512 27.5805 121.036 27.588 120.792 27.6Z" fill="#494B4F"/>
<path d="M136.977 27.6C134.804 27.579 132.648 27.2181 130.586 26.5305C130.347 26.451 130.286 26.3805 130.374 26.1285C130.713 25.1115 131.034 24.0885 131.346 23.0625C131.421 22.8135 131.496 22.7775 131.739 22.8945C133.737 23.8664 135.989 24.1865 138.177 23.8095C138.646 23.7358 139.096 23.5685 139.499 23.3175C140.493 22.683 140.615 21.5175 139.775 20.7015C139.423 20.3849 139.031 20.1152 138.609 19.899C137.409 19.218 136.163 18.609 135.033 17.799C132.428 15.9165 132.752 12.51 134.345 10.8C135.419 9.64949 136.775 9.03149 138.279 8.69999C140.276 8.24999 142.271 8.35799 144.264 8.72699C145.104 8.87699 145.926 9.10499 146.748 9.32699C147.021 9.40349 147.12 9.48449 147.005 9.79649C146.658 10.737 146.343 11.688 146.037 12.6465C145.952 12.909 145.866 12.9465 145.608 12.834C144.151 12.1498 142.559 11.8017 140.949 11.8155C140.199 11.829 139.475 11.94 138.821 12.333C138.201 12.7035 137.888 13.242 137.981 13.983C138.039 14.454 138.323 14.7825 138.68 15.0525C139.43 15.621 140.292 15.996 141.108 16.446C142.038 16.9605 142.956 17.496 143.768 18.1875C146.042 20.1375 145.785 23.7525 143.504 25.6125C142.278 26.613 140.856 27.132 139.322 27.4005C138.547 27.5264 137.763 27.5931 136.977 27.6Z" fill="#494B4F"/>
<path d="M77.5444 23.1837C77.4679 23.6337 77.2744 24.0372 77.1319 24.4617C76.8604 25.2702 76.5709 26.0712 76.3024 26.8812C76.2827 26.9622 76.2378 27.0349 76.1742 27.0888C76.1106 27.1427 76.0315 27.175 75.9484 27.1812C74.1484 27.4812 72.3289 27.6717 70.5004 27.5337C67.7719 27.3282 65.4319 26.3337 63.8239 24.0087C62.6899 22.3707 62.2894 20.5092 62.3899 18.5487C62.5579 15.2787 63.9439 12.6027 66.4984 10.5537C67.9624 9.38072 69.6844 8.80473 71.5189 8.56473C73.7897 8.24287 76.1021 8.38111 78.3184 8.97123C78.7414 9.08673 79.1494 9.24873 79.5649 9.38373C79.7149 9.43173 79.7539 9.49623 79.6984 9.65973C79.3444 10.6947 78.9934 11.7327 78.6619 12.7752C78.5884 13.0047 78.4849 12.9582 78.3364 12.8997C77.2773 12.4654 76.1557 12.2026 75.0139 12.1212C72.5434 11.9817 70.3954 12.6612 68.8534 14.7177C67.4089 16.6452 67.1854 19.8462 68.7319 21.7812C69.6934 22.9812 70.9624 23.6172 72.4684 23.7927C74.0929 23.9817 75.6634 23.6682 77.2144 23.2227C77.3134 23.1942 77.4139 23.1747 77.5144 23.1507L77.5444 23.1837Z" fill="#494B4F"/>
<path d="M94.6477 23.1635C94.3027 24.1565 93.9067 25.139 93.6232 26.153C93.4177 26.8925 93.0712 27.2435 92.2642 27.3245C90.0142 27.5495 87.7642 27.8015 85.5142 27.206C81.9757 26.2655 79.6642 23.4425 79.4722 19.7735C79.2622 15.7865 80.7892 12.6005 84.0007 10.244C85.3507 9.25548 86.9257 8.78748 88.5697 8.57298C90.84 8.25218 93.1515 8.3899 95.3677 8.97798C95.7787 9.09048 96.1732 9.25848 96.5827 9.37698C96.7972 9.43998 96.8032 9.53748 96.7327 9.72498C96.3892 10.7285 96.0487 11.732 95.7292 12.743C95.6527 12.9845 95.5612 12.9755 95.3647 12.9005C93.7927 12.3005 92.1847 11.975 90.4882 12.1505C87.6067 12.4595 85.4137 14.3645 84.8602 17.168C84.4612 19.1915 84.8272 21.0425 86.4397 22.475C87.7252 23.615 89.2897 23.933 90.9562 23.8355C92.1319 23.7581 93.2936 23.5364 94.4152 23.1755C94.4827 23.1635 94.5427 23.108 94.6477 23.1635Z" fill="#494B4F"/>
<path d="M37.5039 19.0351L18.8184 0.349609V3.21761L34.6359 19.0351L34.6419 19.0411L20.9409 32.7421L20.9244 32.7256L7.23238 19.0351L7.22038 19.0231L13.9419 12.3016H11.0244L4.29688 19.0291L4.30288 19.0351L20.9184 35.6506L20.9244 35.6446L37.5189 19.0501L37.5039 19.0351Z" fill="#494B4F"/>
<path d="M18.8117 5.19141V8.05941L29.7933 19.0409L20.9463 27.8879L12.0917 19.0349L12.0798 19.0229L18.8013 12.3014H15.8838L9.15625 19.0289L9.16225 19.0349L19.4808 29.3534L20.9237 30.7964L22.3907 29.3309L32.6703 19.0499L18.8117 5.19141Z" fill="#494B4F"/>
<path d="M27.8326 19.0353L22.3531 13.5498L20.8951 12.0918L19.4611 13.5258L13.9531 19.0293L19.4641 24.5403L20.9071 25.9833L22.3711 24.5178L27.8476 19.0503L27.8326 19.0353ZM20.9326 23.0853L16.8826 19.0353L16.8706 19.0233L20.9101 14.9838L24.9601 19.0338L20.9326 23.0853Z" fill="#494B4F"/>
</svg>
