<svg width="121" height="40" viewBox="0 0 121 40" fill="none" xmlns="http://www.w3.org/2000/svg">
<path d="M7.50018 35.088C8.47168 35.088 9.38259 34.1741 10.1424 32.8428V18.7372C6.98473 19.4392 5.1617 23.0875 5.1617 28.9136C5.1617 32.49 5.89164 35.088 7.50018 35.088ZM17.3683 36.351V37.0531L11.5078 39.9993H11.2044L10.3246 34.5988C8.65386 38.1752 6.68137 39.9993 4.76744 39.9993C1.91352 39.9993 0 36.5629 0 31.3707C0 23.2284 4.00761 17.7552 10.1424 17.266V12.7038C10.1424 8.00072 8.47168 4.84446 5.92153 4.84446C4.25079 4.84446 4.31299 4.68669 2.82443 5.87788L2.70446 4.89487C4.82844 1.52763 6.31538 0.00504684 8.86553 0.00504684C12.6009 0.00504684 15.3037 4.49625 15.3037 11.2998V34.1059L17.3683 36.351Z" fill="#494B4F"/>
<path d="M15.875 20.703C15.875 8.28151 19.5493 0.00204849 24.9538 0.00204849C27.14 0.00204849 29.3258 1.26511 30.7521 2.9492L30.5405 11.0205L30.2056 10.8795L25.2887 2.10715C22.6759 2.10715 21.1579 8.07334 21.1579 18.105C21.1579 28.0723 23.1324 34.7358 26.3507 34.7358C27.9899 34.7358 29.9333 33.6856 31.1787 31.9296L31.4825 32.7035C29.6902 36.7009 27.3517 40 23.769 40C19.0327 40 15.875 32.2825 15.875 20.703Z" fill="#494B4F"/>
<path d="M49.0298 35.561V36.3526L43.5119 39.998H43.2081L42.2972 34.3875C40.4741 38.1049 38.3502 39.998 36.4072 39.998C33.4611 39.998 31.3359 35.5068 31.3359 28.7024V4.62013L36.1939 2.37126H36.4976V27.2993C36.4976 31.7905 37.6202 34.7367 39.3221 34.7367C40.4741 34.7367 41.3552 33.8946 42.1465 32.3515V6.1063L40.2936 3.65206V2.95005L47.0028 9.91821e-05H47.3062V34.1037L49.0298 35.561Z" fill="#494B4F"/>
<path d="M78.4616 38.5958V39.2979H69.4139V38.5958L71.2358 36.4907V12.7026C71.2358 8.2123 70.0817 5.26515 68.3503 5.26515C67.136 5.26515 66.2251 6.24815 65.4047 8.00412C65.5275 8.98246 65.5869 10.1083 65.5869 11.2995V36.4907L67.561 38.5958V39.2979H58.6034V38.5958L60.4252 36.4907V12.7026C60.4252 8.2123 59.2715 5.26515 57.5418 5.26515C56.4176 5.26515 55.5362 6.10719 54.7779 7.57937V36.4189L56.7525 38.5958V39.2979H47.7031V38.5958L49.6166 36.4907V6.10719L47.7637 3.65015V2.94813L54.0181 0.000984192H54.3219L54.6252 5.54614C56.4487 1.89791 58.5428 0.000984192 60.4563 0.000984192C62.6114 0.000984192 64.3116 2.3152 65.1009 6.17907C67.0145 2.17797 69.2317 0.000984192 71.2652 0.000984192C74.2407 0.000984192 76.397 4.49219 76.397 11.2995V36.4189L78.4616 38.5958Z" fill="#494B4F"/>
<path d="M82.314 17.125L88.1745 16.4958C88.1745 6.60043 87.262 2.10923 85.319 2.10923C83.376 2.10923 82.4356 6.88049 82.314 17.125ZM90.9291 33.5112L91.203 34.2814C89.35 38.2825 88.6294 39.9993 84.8956 39.9993C80.1589 39.9993 77 32.2809 77 20.7051C77 8.28451 80.4611 0.00504684 85.5929 0.00504684C90.2391 0.00504684 93.3047 7.44247 93.3047 18.6H82.314V19.302C82.314 28.5635 84.318 34.7379 87.628 34.7379C89.3282 34.7379 89.6538 35.2672 90.9291 33.5112Z" fill="#494B4F"/>
<path d="M112.285 38.5958V39.2979H103.145V38.5958L105.059 36.4907V12.7026C105.059 8.2123 103.874 5.26515 102.084 5.26515C100.867 5.26515 99.9269 6.17907 99.1081 7.71939V36.4907L101.171 38.5958V39.2979H92.0312V38.5958L93.9452 36.4907V6.10719L92.0922 3.65015V2.94813L98.3483 0.000984192H98.652L98.9554 5.61429C100.838 1.96606 102.995 0.000984192 104.998 0.000984192C108.034 0.000984192 110.22 4.49219 110.22 11.2995V36.4907L112.285 38.5958Z" fill="#494B4F"/>
<path d="M117.308 39.877C115.662 39.877 114.609 37.5058 114.609 33.893C114.609 30.3988 115.662 28.0314 117.308 28.0314C118.953 28.0314 120.005 30.3988 120.005 33.893C120.005 37.5058 118.953 39.877 117.308 39.877Z" fill="#494B4F"/>
</svg>
