<svg width="150" height="45" viewBox="0 0 150 45" fill="none" xmlns="http://www.w3.org/2000/svg">
<path fill-rule="evenodd" clip-rule="evenodd" d="M104.694 36.53H100.912C100.51 36.53 100.107 36.1739 100.107 35.7465V31.5442C100.107 31.1881 100.51 30.832 100.912 30.832H104.694C105.177 30.832 105.579 31.1881 105.579 31.5442V35.7465C105.579 36.1739 105.177 36.53 104.694 36.53ZM18.75 36.53H14.8873C14.4045 36.53 14.0021 36.1026 14.0021 35.7465V23.4958C14.0021 20.2907 13.3584 19.436 10.5418 19.436C9.09335 19.436 7.40343 19.8633 5.63305 20.718V35.7465C5.63305 36.1026 5.23069 36.53 4.74785 36.53H0.885193C0.402361 36.53 0 36.1026 0 35.7465V1.05991C0 0.703782 0.402361 0.347656 0.885193 0.347656H4.74785C5.23069 0.347656 5.63305 0.703782 5.63305 1.05991V16.6582C7.24249 15.8035 9.01288 15.3049 11.9903 15.3049C17.8648 15.3049 19.6352 18.9374 19.6352 23.4958V35.7465C19.6352 36.1026 19.2328 36.53 18.75 36.53ZM34.9249 24.5642C34.9249 21.5015 33.3959 19.5072 30.4185 19.5072C27.441 19.5072 25.8315 21.5015 25.8315 24.5642V27.5556C25.8315 30.6183 27.441 32.5414 30.4185 32.5414C33.3959 32.5414 34.9249 30.6183 34.9249 27.5556V24.5642ZM30.4185 36.8149C23.7393 36.8149 20.279 32.8975 20.279 27.5556V24.5642C20.279 19.2223 23.7393 15.3049 30.4185 15.3049C37.0172 15.3049 40.5579 19.2223 40.5579 24.5642V27.5556C40.5579 32.8975 37.0172 36.8149 30.4185 36.8149ZM53.0311 36.53C51.985 36.6724 51.0998 36.8149 50.1341 36.8149C45.3058 36.8149 43.3745 35.889 43.3745 30.9032V19.2223L39.4313 18.7237C38.9485 18.6525 38.5461 18.3676 38.5461 17.9402V16.3021C38.5461 15.8747 38.9485 15.5186 39.4313 15.5186H43.3745V12.4559C43.3745 12.0998 43.7768 11.8149 44.2597 11.7437L48.2028 11.1739H48.3637C48.7661 11.1739 49.0075 11.3163 49.0075 11.6724V15.5186H52.8702C53.2725 15.5186 53.6749 15.8747 53.6749 16.3021V18.4388C53.6749 18.8662 53.2725 19.2223 52.8702 19.2223H49.0075V30.9032C49.0075 32.7551 49.1685 32.9687 50.6974 32.9687H52.9506C53.514 32.9687 53.8358 33.1824 53.8358 33.5385V35.889C53.8358 36.2451 53.5944 36.4588 53.0311 36.53ZM68.7232 24.0656C68.7232 21.2166 66.9528 19.5072 64.2972 19.5072C61.6416 19.5072 59.7908 21.1454 59.7908 24.0656V24.2081H68.7232V24.0656ZM73.5515 27.6981H59.7103V27.8405C59.7103 29.9773 60.7564 32.5414 64.7801 32.5414C67.9185 32.5414 70.8155 32.3277 72.5858 32.1853H72.7468C73.1491 32.1853 73.471 32.3989 73.471 32.7551V35.1767C73.471 35.8177 73.3906 36.0314 72.5858 36.1739C69.8498 36.6012 68.2403 36.8149 64.3777 36.8149C60.1127 36.8149 54.1577 34.8206 54.1577 27.4844V24.7066C54.1577 18.9374 57.779 15.3049 64.2972 15.3049C70.8155 15.3049 74.4367 19.1511 74.4367 24.7066V26.7722C74.4367 27.4132 74.1148 27.6981 73.5515 27.6981ZM80.3916 43.9374H76.4485C75.9657 43.9374 75.5633 43.51 75.5633 43.1539V8.96589C75.5633 8.53854 75.9657 8.18241 76.4485 8.18241H80.3916C80.8745 8.18241 81.1964 8.53854 81.1964 8.96589V43.1539C81.1964 43.51 80.8745 43.9374 80.3916 43.9374ZM90.5311 36.8149C88.9217 36.8149 85.3004 36.6012 82.9667 36.0314C82.4034 35.9602 82.162 35.6753 82.162 35.1767V32.9687C82.162 32.6838 82.4034 32.3989 82.8863 32.3989H83.0472C85.059 32.6126 88.9217 32.7551 90.1288 32.7551C92.7843 32.7551 93.1867 32.0428 93.1867 30.9744C93.1867 30.3334 92.7039 29.8348 91.3358 29.1226L85.4614 25.9887C84.4231 25.4752 83.5518 24.7336 82.9315 23.8354C82.3113 22.9371 81.9632 21.9125 81.9206 20.8605C81.9206 17.1568 84.5762 15.3049 89.9678 15.3049C93.4281 15.3049 95.3595 15.5898 97.5322 16.0172C98.0955 16.1596 98.3369 16.4445 98.3369 16.8719V19.0086C98.3369 19.5072 98.0955 19.7209 97.6127 19.7209H97.4517C96.2446 19.5784 92.8648 19.2935 90.4507 19.2935C88.4389 19.2935 87.5537 19.7209 87.5537 20.8605C87.5537 21.4303 88.1974 21.7864 89.2436 22.3562L94.7962 25.3477C98.3369 27.2707 98.9002 29.1226 98.9002 30.9744C98.9002 34.2508 96.0837 36.8149 90.5311 36.8149ZM125.778 36.53H121.915C121.432 36.53 121.03 36.1026 121.03 35.7465V23.6383C121.03 20.3619 120.708 19.436 117.409 19.436C115.96 19.436 114.431 19.9346 112.661 20.7893V35.7465C112.661 36.1026 112.259 36.53 111.776 36.53H107.913C107.43 36.53 107.028 36.1026 107.028 35.7465V16.3021C107.028 15.8747 107.43 15.5186 107.913 15.5186H111.615C112.017 15.5186 112.42 15.8747 112.42 16.3021V17.0855C114.914 15.661 116.524 15.3049 119.34 15.3049C125.456 15.3049 126.663 18.8662 126.663 23.6383V35.7465C126.663 36.1026 126.261 36.53 125.778 36.53ZM142.999 22.4274C142.999 20.6468 142.114 19.2935 138.493 19.2935C134.871 19.2935 133.906 20.718 133.906 22.4274V22.7836C133.906 24.1368 134.469 25.7038 138.493 25.7038C141.953 25.7038 142.999 24.6354 142.999 22.7836V22.4274ZM143.482 37.9545C143.482 37.171 142.918 36.6724 138.493 35.7465L134.71 34.963C134.067 35.7465 133.584 36.2451 133.584 37.5271V37.8833C133.584 39.379 134.71 40.3049 138.653 40.3049C142.758 40.3049 143.482 39.5927 143.482 38.2394V37.9545ZM148.873 18.9374L147.425 19.436C148.149 20.2907 148.471 21.0742 148.471 22.3562V22.6411C148.471 27.2707 144.85 29.4075 138.493 29.4075C136.239 29.4075 134.71 29.0514 133.825 28.7665C133.342 29.0514 133.101 29.4075 133.101 29.7636C133.101 30.4759 133.584 30.7608 134.549 30.9744L139.539 32.0428C145.333 33.1824 149.034 33.9659 149.034 37.9545V38.2394C149.034 42.0143 145.896 44.0798 138.653 44.0798C131.813 44.0798 128.112 41.8006 128.112 37.8833V37.5271C128.112 36.0314 128.916 34.5357 130.284 33.4673C129.699 33.0619 129.228 32.5425 128.907 31.9495C128.586 31.3565 128.424 30.706 128.433 30.0485V29.9773C128.433 28.8377 128.916 27.6981 130.123 26.9858C128.836 25.8462 128.353 24.493 128.353 22.6411V22.3562C128.353 18.6525 131.089 15.5186 138.493 15.5186H148.391C149.034 15.5186 149.517 16.0172 149.517 16.5157V18.0827C149.517 18.6525 149.356 18.7237 148.873 18.9374Z" fill="#494B4F"/>
</svg>
