<svg width="120" height="50" viewBox="0 0 120 50" fill="none" xmlns="http://www.w3.org/2000/svg">
<path d="M0.159758 50H5.37032V36.4695H5.45088C5.71717 37.1076 6.07434 37.6344 6.49272 38.006C6.92065 38.5449 7.4114 38.9405 7.93601 39.1694C8.5631 39.4408 9.21059 39.5708 9.85993 39.5558C11.4125 39.5962 12.9313 38.826 14.1884 37.3607C14.8496 36.5357 15.4197 35.5376 15.8747 34.4083C16.4359 33.2492 16.7568 31.9607 17.0777 30.4132C17.3986 28.7383 17.4791 27.0634 17.4791 25.0001C17.4791 22.9367 17.3194 20.8755 16.9179 19.2006C16.6062 17.6241 16.0869 16.1739 15.3955 14.9487C14.7996 13.7235 14.0267 12.7507 13.1438 12.1148C12.3064 11.544 11.4084 11.2377 10.499 11.2126C9.36233 11.1841 8.23715 11.5809 7.21232 12.3716C6.28334 13.1174 5.48531 14.2252 4.89105 15.594H4.81458L4.57426 11.8624H0C0 13.1509 0.0805617 14.4394 0.0805617 15.987C0.161123 17.5235 0.161123 19.2094 0.161123 20.8842V50H0.159758ZM5.37032 23.5842V22.8115C5.45088 22.5547 5.45088 22.2957 5.53008 22.1662C5.61881 21.3423 5.80966 20.5555 6.09128 19.8525C6.38562 19.2362 6.77157 18.7486 7.21368 18.4345C7.69432 18.0482 8.09576 17.7891 8.65696 17.7891C9.35226 17.7748 10.0302 18.1383 10.5809 18.8208C11.1504 19.4902 11.5704 20.4371 11.7784 21.5208C12.0444 22.7659 12.1827 24.0722 12.188 25.3886C12.1885 26.789 12.0502 28.1805 11.7784 29.511C11.5114 30.5478 11.0668 31.4415 10.4962 32.088C9.94554 32.7706 9.2676 33.1341 8.57231 33.1197C8.01111 33.1197 7.61649 32.8629 7.12902 32.6039C6.74658 32.2023 6.39662 31.726 6.08718 31.1858C5.84686 30.5405 5.60655 29.8973 5.52598 29.1246C5.44542 28.8678 5.44542 28.6088 5.36623 28.2225V23.5842H5.37032ZM20.7617 39.0487H26.0528V24.2274C26.0528 23.9706 26.1334 23.582 26.1334 23.3252C26.2747 22.0856 26.705 20.9793 27.3363 20.2323C27.9736 19.4596 28.7751 19.0733 29.7409 19.0733H30.5424C30.7022 19.2028 30.9439 19.2028 31.1842 19.3301V11.3399C30.9439 11.3399 30.7827 11.2104 30.623 11.2104H30.0618C29.6603 11.2104 29.1797 11.2104 28.7796 11.4673C28.3159 11.6793 27.881 12.0293 27.4975 12.499C27.0474 12.9646 26.6647 13.5799 26.3751 14.3033C25.9736 14.9487 25.7333 15.8399 25.493 16.8804H25.3332L25.1735 11.8536H20.6811C20.67 12.6715 20.697 13.4897 20.7617 14.3011V39.0465V39.0487ZM39.1953 39.0487V11.8558H33.9069V39.0465L39.1953 39.0487ZM43.364 39.0487H48.6551V22.1662C48.6596 21.8485 48.7146 21.5379 48.8149 21.264C48.8955 20.7481 49.1358 20.2323 49.3761 19.7274C49.5922 19.2092 49.8992 18.8058 50.2582 18.5684C50.5791 18.1821 50.9791 18.0526 51.4611 18.0526C52.1029 18.0526 52.6641 18.3094 53.0642 18.8252C53.4388 19.3879 53.7151 20.0986 53.8657 20.8864C54.106 21.7886 54.1866 22.8203 54.1866 23.9793V39.0575H59.3972V22.9389C59.3972 20.8777 59.2374 19.2072 58.9165 17.7848C58.6762 16.2482 58.1956 15.0782 57.7136 14.0531C57.1524 13.1509 56.5106 12.3782 55.7896 11.9919C55.0286 11.4768 54.2108 11.214 53.3851 11.2192C52.7357 11.2042 52.0882 11.3342 51.4611 11.6056C50.8999 11.9919 50.3387 12.2509 49.9387 12.7646C49.5311 13.1644 49.1543 13.6404 48.8163 14.1826C48.576 14.6984 48.3356 15.2143 48.1745 15.6006H48.0148L47.7744 11.869H43.2056C43.2862 13.028 43.2862 14.446 43.3654 15.864V39.0465L43.364 39.0487ZM64.1189 6.83121V11.858H61.8836V18.0438H64.1284V29.1268C64.1162 30.7817 64.2514 32.4308 64.5299 34.0241C64.7309 35.2061 65.0881 36.3045 65.5772 37.2443C66.0764 37.9496 66.6454 38.5157 67.2608 38.9192C68.0066 39.3418 68.7913 39.56 69.5821 39.5645C70.2525 39.5474 70.9216 39.4609 71.5852 39.3055C72.1464 39.176 72.627 39.0487 72.9506 38.7897V32.4744C72.7863 32.4543 72.6213 32.4987 72.47 32.6039H71.3476C70.867 32.6039 70.4655 32.4744 70.1446 32.088C69.8237 31.8312 69.5834 31.3154 69.5029 30.5515C69.3436 29.9017 69.2639 28.9966 69.2639 27.8361V18.0416H73.0312V11.8558H69.2639V4.51099L64.1339 6.83121H64.1189ZM83.7582 11.858L89.93 39.0487H95.1406L101.393 11.858H95.8711L93.7055 24.4864C93.5457 25.6454 93.3846 26.6815 93.2249 27.8361C93.0457 28.8905 92.912 29.9635 92.8248 31.0476H92.665C92.5699 29.9619 92.4358 28.886 92.2636 27.8251C92.114 26.6932 91.9267 25.575 91.7024 24.4754L89.4589 11.8558H83.7677L83.7582 11.858ZM111.414 11.2126C110.049 11.2126 108.769 11.4695 107.727 12.2443C106.645 12.8284 105.659 13.7979 104.842 15.0804C104.041 16.3689 103.399 17.787 102.999 19.5913C102.572 21.5365 102.355 23.5848 102.357 25.6476C102.347 27.6278 102.564 29.5941 102.999 31.4471C103.431 33.0882 104.057 34.5791 104.842 35.8373C105.643 37.0902 106.599 38.0567 107.648 38.6733C108.69 39.3187 109.893 39.5755 111.095 39.5755C111.977 39.5755 112.938 39.446 113.739 39.0597C114.613 38.6915 115.449 38.1277 116.225 37.3848C116.958 36.6151 117.608 35.657 118.148 34.5487C118.79 33.3897 119.19 31.9717 119.514 30.4241C119.851 28.7093 120.015 26.9189 120 25.1208C120 23.0596 119.84 21.1257 119.358 19.4508C118.957 17.776 118.402 16.2284 117.675 15.0606C116.902 13.8099 115.971 12.8425 114.944 12.2246C113.902 11.4519 112.699 11.1929 111.417 11.1929L111.414 11.2126ZM111.254 17.2689C111.815 17.2689 112.377 17.3984 112.777 17.9143C113.177 18.4301 113.578 18.946 113.819 19.7186C114.101 20.5625 114.291 21.478 114.38 22.4252C114.544 23.3908 114.624 24.3878 114.62 25.3886C114.62 26.9252 114.46 28.4815 114.139 29.6405C113.951 30.7456 113.56 31.7338 113.017 32.4766C112.536 33.2492 111.895 33.5083 111.253 33.5083C110.558 33.5226 109.88 33.1591 109.329 32.4766C108.802 31.6613 108.415 30.6403 108.207 29.5132C107.886 28.3542 107.805 26.9361 107.805 25.3886C107.815 24.396 107.868 23.4057 107.965 22.4252C108.125 21.3935 108.286 20.6208 108.607 19.8482C108.865 19.0918 109.22 18.4325 109.649 17.9143C110.138 17.4741 110.691 17.2514 111.252 17.2689H111.254Z" fill="#494B4F"/>
<path d="M76.2344 11.9854V18.6848H81.6047V11.9854H76.2344Z" fill="#494B4F"/>
<path d="M76.2344 18.6848V25.516H81.6047V18.6848H76.2344Z" fill="#494B4F"/>
<path d="M76.2344 25.5159V32.2175H81.6047V25.5159H76.2344Z" fill="#494B4F"/>
<path d="M76.231 32.2175V39.0464H81.6013V32.2175H76.231ZM78.9565 0C77.3534 0 76.0713 2.0612 76.0713 4.51093C76.0687 5.12128 76.1416 5.72636 76.2857 6.29106C76.4298 6.85576 76.6422 7.36885 76.9106 7.80054C77.179 8.23223 77.498 8.57393 77.8492 8.80582C78.2004 9.03771 78.5768 9.15517 78.9565 9.15137C80.4789 9.15137 81.7625 7.09017 81.7625 4.51313C81.7539 3.32079 81.4556 2.18112 80.9313 1.33775C80.4069 0.494387 79.6981 0.0142535 78.9565 0V0ZM36.6275 0C35.0244 0 33.7423 2.0612 33.7423 4.51093C33.7397 5.12128 33.8126 5.72636 33.9567 6.29106C34.1008 6.85576 34.3132 7.36885 34.5816 7.80054C34.85 8.23223 35.169 8.57393 35.5202 8.80582C35.8714 9.03771 36.2478 9.15517 36.6275 9.15137C38.1499 9.15137 39.4335 7.09017 39.4335 4.51313C39.4249 3.32079 39.1266 2.18112 38.6023 1.33775C38.0779 0.494387 37.3691 0.0142535 36.6275 0Z" fill="#494B4F"/>
</svg>
